<svg width="2848" height="521" viewBox="0 0 2848 521" fill="none" xmlns="http://www.w3.org/2000/svg">
<path d="M168.85 461.3C140.25 461.3 112.75 456.717 86.35 447.55C60.3167 438.017 40.15 425.917 25.85 411.25L41.8 379.9C55.3667 393.1 73.5167 404.283 96.25 413.45C119.35 422.25 143.55 426.65 168.85 426.65C193.05 426.65 212.667 423.717 227.7 417.85C243.1 411.617 254.283 403.367 261.25 393.1C268.583 382.833 272.25 371.467 272.25 359C272.25 343.967 267.85 331.867 259.05 322.7C250.617 313.533 239.433 306.383 225.5 301.25C211.567 295.75 196.167 290.983 179.3 286.95C162.433 282.917 145.567 278.7 128.7 274.3C111.833 269.533 96.25 263.3 81.95 255.6C68.0167 247.9 56.65 237.817 47.85 225.35C39.4167 212.517 35.2 195.833 35.2 175.3C35.2 156.233 40.15 138.817 50.05 123.05C60.3167 106.917 75.9 94.0833 96.8 84.55C117.7 74.65 144.467 69.7 177.1 69.7C198.733 69.7 220.183 72.8167 241.45 79.05C262.717 84.9167 281.05 93.1666 296.45 103.8L282.7 136.25C266.2 125.25 248.6 117.183 229.9 112.05C211.567 106.917 193.783 104.35 176.55 104.35C153.45 104.35 134.383 107.467 119.35 113.7C104.317 119.933 93.1333 128.367 85.8 139C78.8333 149.267 75.35 161 75.35 174.2C75.35 189.233 79.5667 201.333 88 210.5C96.8 219.667 108.167 226.817 122.1 231.95C136.4 237.083 151.983 241.667 168.85 245.7C185.717 249.733 202.4 254.133 218.9 258.9C235.767 263.667 251.167 269.9 265.1 277.6C279.4 284.933 290.767 294.833 299.2 307.3C308 319.767 312.4 336.083 312.4 356.25C312.4 374.95 307.267 392.367 297 408.5C286.733 424.267 270.967 437.1 249.7 447C228.8 456.533 201.85 461.3 168.85 461.3ZM862.456 458V73H1006.56C1039.19 73 1067.24 78.3166 1090.71 88.95C1114.17 99.2167 1132.14 114.25 1144.61 134.05C1157.44 153.483 1163.86 177.133 1163.86 205C1163.86 232.133 1157.44 255.6 1144.61 275.4C1132.14 294.833 1114.17 309.867 1090.71 320.5C1067.24 330.767 1039.19 335.9 1006.56 335.9H885.006L903.156 317.2V458H862.456ZM1125.36 458L1026.36 318.3H1070.36L1169.91 458H1125.36ZM903.156 320.5L885.006 301.25H1005.46C1043.96 301.25 1073.11 292.817 1092.91 275.95C1113.07 259.083 1123.16 235.433 1123.16 205C1123.16 174.2 1113.07 150.367 1092.91 133.5C1073.11 116.633 1043.96 108.2 1005.46 108.2H885.006L903.156 88.95V320.5ZM1427.12 461.3C1398.15 461.3 1371.38 456.533 1346.82 447C1322.25 437.1 1300.98 423.35 1283.02 405.75C1265.05 388.15 1250.93 367.433 1240.67 343.6C1230.77 319.767 1225.82 293.733 1225.82 265.5C1225.82 237.267 1230.77 211.233 1240.67 187.4C1250.93 163.567 1265.05 142.85 1283.02 125.25C1301.35 107.65 1322.8 94.0833 1347.37 84.55C1371.93 74.65 1398.7 69.7 1427.67 69.7C1455.53 69.7 1481.75 74.4667 1506.32 84C1530.88 93.1667 1551.6 107.1 1568.47 125.8L1542.62 151.65C1526.85 135.517 1509.43 123.967 1490.37 117C1471.3 109.667 1450.77 106 1428.77 106C1405.67 106 1384.22 110.033 1364.42 118.1C1344.62 125.8 1327.38 136.983 1312.72 151.65C1298.05 165.95 1286.5 182.817 1278.07 202.25C1270 221.317 1265.97 242.4 1265.97 265.5C1265.97 288.6 1270 309.867 1278.07 329.3C1286.5 348.367 1298.05 365.233 1312.72 379.9C1327.38 394.2 1344.62 405.383 1364.42 413.45C1384.22 421.15 1405.67 425 1428.77 425C1450.77 425 1471.3 421.333 1490.37 414C1509.43 406.667 1526.85 394.933 1542.62 378.8L1568.47 404.65C1551.6 423.35 1530.88 437.467 1506.32 447C1481.75 456.533 1455.35 461.3 1427.12 461.3ZM1691.53 245.15H1895.03V279.8H1691.53V245.15ZM1695.93 422.8H1927.48V458H1655.23V73H1919.23V108.2H1695.93V422.8ZM2023.15 458V73H2167.25C2199.88 73 2227.93 78.3166 2251.4 88.95C2274.87 99.2167 2292.83 114.25 2305.3 134.05C2318.13 153.483 2324.55 177.133 2324.55 205C2324.55 232.133 2318.13 255.6 2305.3 275.4C2292.83 294.833 2274.87 309.867 2251.4 320.5C2227.93 330.767 2199.88 335.9 2167.25 335.9H2045.7L2063.85 317.2V458H2023.15ZM2286.05 458L2187.05 318.3H2231.05L2330.6 458H2286.05ZM2063.85 320.5L2045.7 301.25H2166.15C2204.65 301.25 2233.8 292.817 2253.6 275.95C2273.77 259.083 2283.85 235.433 2283.85 205C2283.85 174.2 2273.77 150.367 2253.6 133.5C2233.8 116.633 2204.65 108.2 2166.15 108.2H2045.7L2063.85 88.95V320.5ZM2588.91 461.3C2559.94 461.3 2532.99 456.533 2508.06 447C2483.49 437.1 2462.04 423.35 2443.71 405.75C2425.74 387.783 2411.63 367.067 2401.36 343.6C2391.46 319.767 2386.51 293.733 2386.51 265.5C2386.51 237.267 2391.46 211.417 2401.36 187.95C2411.63 164.117 2425.74 143.4 2443.71 125.8C2462.04 107.833 2483.49 94.0833 2508.06 84.55C2532.63 74.65 2559.58 69.7 2588.91 69.7C2617.88 69.7 2644.64 74.65 2669.21 84.55C2693.78 94.0833 2715.04 107.65 2733.01 125.25C2751.34 142.85 2765.46 163.567 2775.36 187.4C2785.63 211.233 2790.76 237.267 2790.76 265.5C2790.76 293.733 2785.63 319.767 2775.36 343.6C2765.46 367.433 2751.34 388.15 2733.01 405.75C2715.04 423.35 2693.78 437.1 2669.21 447C2644.64 456.533 2617.88 461.3 2588.91 461.3ZM2588.91 425C2612.01 425 2633.28 421.15 2652.71 413.45C2672.51 405.383 2689.56 394.2 2703.86 379.9C2718.53 365.233 2729.89 348.367 2737.96 329.3C2746.03 309.867 2750.06 288.6 2750.06 265.5C2750.06 242.4 2746.03 221.317 2737.96 202.25C2729.89 182.817 2718.53 165.95 2703.86 151.65C2689.56 136.983 2672.51 125.8 2652.71 118.1C2633.28 110.033 2612.01 106 2588.91 106C2565.81 106 2544.36 110.033 2524.56 118.1C2504.76 125.8 2487.53 136.983 2472.86 151.65C2458.56 165.95 2447.19 182.817 2438.76 202.25C2430.69 221.317 2426.66 242.4 2426.66 265.5C2426.66 288.233 2430.69 309.317 2438.76 328.75C2447.19 348.183 2458.56 365.233 2472.86 379.9C2487.53 394.2 2504.76 405.383 2524.56 413.45C2544.36 421.15 2565.81 425 2588.91 425Z" fill="white"/>
<circle cx="574.784" cy="260" r="178.5" stroke="#F8ABFF" stroke-width="15"/>
<path fill-rule="evenodd" clip-rule="evenodd" d="M566.701 41L574.784 27L582.867 41L642.045 143.5L760.402 143.5L776.568 143.5L768.485 157.5L709.307 260L768.485 362.5L776.568 376.5H760.402H642.045L582.867 479L574.784 493L566.701 479L507.523 376.5H389.166H373L381.083 362.5L440.261 260L381.083 157.5L373 143.5H389.166L507.523 143.5L566.701 41ZM499.44 157.5L397.249 157.5L448.344 246L499.44 157.5ZM456.427 260L515.606 157.5H633.962L693.141 260L633.962 362.5H515.605L456.427 260ZM448.344 274L397.249 362.5H499.44L448.344 274ZM523.688 376.5L574.784 465L625.879 376.5H523.688ZM650.128 362.5H752.319L701.224 274L650.128 362.5ZM701.224 246L752.319 157.5L650.128 157.5L701.224 246ZM625.879 143.5L523.688 143.5L574.784 55L625.879 143.5Z" fill="#F8ABFF"/>
<path fill-rule="evenodd" clip-rule="evenodd" d="M574.784 200.166L530.509 225.728L574.865 251.337L619.14 225.775L574.784 200.166ZM523.832 288.417V238.039L567.784 263.415V313.793L523.832 288.417ZM625.736 288.417L581.784 313.793V263.508L625.736 238.133V288.417Z" fill="#FFB258"/>
</svg>
