<svg width="800" height="175" viewBox="0 0 800 175" fill="none" xmlns="http://www.w3.org/2000/svg">
<path d="M42.2758 90.5709L35.8655 88.175L32.0594 99.5555L35.8655 109.738L44.4793 105.545L46.0819 99.5555L42.2758 90.5709Z" fill="#FFB258"/>
<path d="M69.5194 55.4367L6.01907 54.0342L0.609425 58.0269L3.61439 59.6244L8.22208 64.0172L7.22107 71.6041L3.61624 83.3835L5.02058 110.337L10.2303 128.706L20.0469 139.888L30.2637 145.878L25.2551 138.291L16.6404 126.111L16.64 121.519L18.4405 90.5723L22.4461 79.9908L26.8524 70.6073L34.8646 62.6217L43.6787 62.6224L49.0879 69.4111L56.9014 83.3877L59.907 93.3708L59.909 119.326L58.3077 134.899L49.0945 154.864L58.3087 148.276L71.5285 130.109L70.7235 83.3888L65.5139 66.8169L65.5136 62.6241L69.5194 55.4367Z" fill="#F8ABFF"/>
<path d="M204.64 65.16C210.101 65.16 214.837 66.2267 218.848 68.36C222.944 70.408 226.101 73.5653 228.32 77.832C230.624 82.0987 231.776 87.4747 231.776 93.96V133H222.688V94.856C222.688 87.7733 220.981 82.44 217.568 78.856C214.24 75.1867 209.504 73.352 203.36 73.352C198.752 73.352 194.741 74.3333 191.328 76.296C188 78.1733 185.397 80.9467 183.52 84.616C181.728 88.2 180.832 92.552 180.832 97.672V133H171.744V94.856C171.744 87.7733 170.037 82.44 166.624 78.856C163.211 75.1867 158.432 73.352 152.288 73.352C147.765 73.352 143.797 74.3333 140.384 76.296C136.971 78.1733 134.325 80.9467 132.448 84.616C130.656 88.2 129.76 92.552 129.76 97.672V133H120.672V65.8H129.376V83.976L127.968 80.776C130.016 75.912 133.301 72.1147 137.824 69.384C142.432 66.568 147.851 65.16 154.08 65.16C160.651 65.16 166.24 66.824 170.848 70.152C175.456 73.3947 178.443 78.3013 179.808 84.872L176.224 83.464C178.187 78.0027 181.643 73.608 186.592 70.28C191.627 66.8667 197.643 65.16 204.64 65.16ZM298.534 133V118.152L298.15 115.72V90.888C298.15 85.1707 296.529 80.776 293.286 77.704C290.129 74.632 285.393 73.096 279.078 73.096C274.726 73.096 270.587 73.8213 266.662 75.272C262.737 76.7227 259.409 78.6427 256.678 81.032L252.582 74.248C255.995 71.3467 260.091 69.128 264.87 67.592C269.649 65.9707 274.683 65.16 279.974 65.16C288.678 65.16 295.377 67.336 300.07 71.688C304.849 75.9547 307.238 82.4827 307.238 91.272V133H298.534ZM275.366 133.64C270.331 133.64 265.937 132.829 262.182 131.208C258.513 129.501 255.697 127.197 253.734 124.296C251.771 121.309 250.79 117.896 250.79 114.056C250.79 110.557 251.601 107.4 253.222 104.584C254.929 101.683 257.659 99.3787 261.414 97.672C265.254 95.88 270.374 94.984 276.774 94.984H299.942V101.768H277.03C270.545 101.768 266.022 102.92 263.462 105.224C260.987 107.528 259.75 110.387 259.75 113.8C259.75 117.64 261.243 120.712 264.23 123.016C267.217 125.32 271.398 126.472 276.774 126.472C281.894 126.472 286.289 125.32 289.958 123.016C293.713 120.627 296.443 117.213 298.15 112.776L300.198 119.048C298.491 123.485 295.505 127.027 291.238 129.672C287.057 132.317 281.766 133.64 275.366 133.64ZM331.922 133V65.8H341.01V133H331.922ZM336.53 50.952C334.653 50.952 333.074 50.312 331.794 49.032C330.514 47.752 329.874 46.216 329.874 44.424C329.874 42.632 330.514 41.1387 331.794 39.944C333.074 38.664 334.653 38.024 336.53 38.024C338.407 38.024 339.986 38.6213 341.266 39.816C342.546 41.0107 343.186 42.504 343.186 44.296C343.186 46.1733 342.546 47.752 341.266 49.032C340.071 50.312 338.493 50.952 336.53 50.952ZM400.601 65.16C406.062 65.16 410.841 66.2267 414.937 68.36C419.118 70.408 422.361 73.5653 424.665 77.832C427.054 82.0987 428.249 87.4747 428.249 93.96V133H419.161V94.856C419.161 87.7733 417.369 82.44 413.785 78.856C410.286 75.1867 405.337 73.352 398.937 73.352C394.158 73.352 389.977 74.3333 386.393 76.296C382.894 78.1733 380.164 80.9467 378.201 84.616C376.324 88.2 375.385 92.552 375.385 97.672V133H366.297V65.8H375.001V84.232L373.593 80.776C375.726 75.912 379.14 72.1147 383.833 69.384C388.526 66.568 394.116 65.16 400.601 65.16ZM453.693 133.64C451.816 133.64 450.194 132.957 448.829 131.592C447.549 130.227 446.909 128.563 446.909 126.6C446.909 124.552 447.549 122.888 448.829 121.608C450.194 120.328 451.816 119.688 453.693 119.688C455.57 119.688 457.149 120.328 458.429 121.608C459.794 122.888 460.477 124.552 460.477 126.6C460.477 128.563 459.794 130.227 458.429 131.592C457.149 132.957 455.57 133.64 453.693 133.64ZM497.97 133.64C492.423 133.64 487.175 132.872 482.226 131.336C477.277 129.715 473.394 127.709 470.578 125.32L474.674 118.152C477.405 120.2 480.903 121.992 485.17 123.528C489.437 124.979 493.917 125.704 498.61 125.704C505.01 125.704 509.618 124.723 512.434 122.76C515.25 120.712 516.658 118.024 516.658 114.696C516.658 112.221 515.847 110.301 514.226 108.936C512.69 107.485 510.642 106.419 508.082 105.736C505.522 104.968 502.663 104.328 499.506 103.816C496.349 103.304 493.191 102.707 490.034 102.024C486.962 101.341 484.146 100.36 481.586 99.08C479.026 97.7147 476.935 95.88 475.314 93.576C473.778 91.272 473.01 88.2 473.01 84.36C473.01 80.6907 474.034 77.4053 476.082 74.504C478.13 71.6027 481.117 69.3413 485.042 67.72C489.053 66.0133 493.917 65.16 499.634 65.16C503.986 65.16 508.338 65.7573 512.69 66.952C517.042 68.0613 520.626 69.5547 523.442 71.432L519.474 78.728C516.487 76.68 513.287 75.2293 509.874 74.376C506.461 73.4373 503.047 72.968 499.634 72.968C493.575 72.968 489.095 74.0347 486.194 76.168C483.378 78.216 481.97 80.8613 481.97 84.104C481.97 86.664 482.738 88.6693 484.274 90.12C485.895 91.5707 487.986 92.7227 490.546 93.576C493.191 94.344 496.05 94.984 499.122 95.496C502.279 96.008 505.394 96.648 508.466 97.416C511.623 98.0987 514.482 99.08 517.042 100.36C519.687 101.555 521.778 103.304 523.314 105.608C524.935 107.827 525.746 110.771 525.746 114.44C525.746 118.365 524.637 121.779 522.418 124.68C520.285 127.496 517.127 129.715 512.946 131.336C508.85 132.872 503.858 133.64 497.97 133.64ZM577.11 133.64C571.307 133.64 566.059 132.317 561.366 129.672C556.673 126.941 552.918 123.059 550.102 118.024C547.371 112.904 546.006 106.675 546.006 99.336C546.006 91.9973 547.371 85.8107 550.102 80.776C552.833 75.656 556.545 71.7733 561.238 69.128C565.931 66.4827 571.222 65.16 577.11 65.16C583.51 65.16 589.227 66.6107 594.262 69.512C599.382 72.328 603.393 76.3387 606.294 81.544C609.195 86.664 610.646 92.5947 610.646 99.336C610.646 106.163 609.195 112.136 606.294 117.256C603.393 122.376 599.382 126.387 594.262 129.288C589.227 132.189 583.51 133.64 577.11 133.64ZM542.422 157.832V65.8H551.126V86.024L550.23 99.464L551.51 113.032V157.832H542.422ZM576.47 125.576C581.249 125.576 585.515 124.509 589.27 122.376C593.025 120.157 596.011 117.085 598.23 113.16C600.449 109.149 601.558 104.541 601.558 99.336C601.558 94.1307 600.449 89.5653 598.23 85.64C596.011 81.7147 593.025 78.6427 589.27 76.424C585.515 74.2053 581.249 73.096 576.47 73.096C571.691 73.096 567.382 74.2053 563.542 76.424C559.787 78.6427 556.801 81.7147 554.582 85.64C552.449 89.5653 551.382 94.1307 551.382 99.336C551.382 104.541 552.449 109.149 554.582 113.16C556.801 117.085 559.787 120.157 563.542 122.376C567.382 124.509 571.691 125.576 576.47 125.576ZM657.716 133.64C650.719 133.64 644.575 132.189 639.284 129.288C633.993 126.301 629.855 122.248 626.868 117.128C623.881 111.923 622.388 105.992 622.388 99.336C622.388 92.68 623.796 86.792 626.612 81.672C629.513 76.552 633.439 72.5413 638.388 69.64C643.423 66.6533 649.055 65.16 655.284 65.16C661.599 65.16 667.188 66.6107 672.052 69.512C677.001 72.328 680.884 76.3387 683.7 81.544C686.516 86.664 687.924 92.5947 687.924 99.336C687.924 99.7627 687.881 100.232 687.796 100.744C687.796 101.171 687.796 101.64 687.796 102.152H629.3V95.368H682.932L679.348 98.056C679.348 93.192 678.281 88.8827 676.148 85.128C674.1 81.288 671.284 78.3013 667.7 76.168C664.116 74.0347 659.977 72.968 655.284 72.968C650.676 72.968 646.537 74.0347 642.868 76.168C639.199 78.3013 636.34 81.288 634.292 85.128C632.244 88.968 631.22 93.3627 631.22 98.312V99.72C631.22 104.84 632.329 109.363 634.548 113.288C636.852 117.128 640.009 120.157 644.02 122.376C648.116 124.509 652.767 125.576 657.972 125.576C662.068 125.576 665.865 124.851 669.364 123.4C672.948 121.949 676.02 119.731 678.58 116.744L683.7 122.632C680.713 126.216 676.959 128.947 672.436 130.824C667.999 132.701 663.092 133.64 657.716 133.64ZM706.422 133V38.024H715.51V133H706.422ZM740.797 133V38.024H749.885V133H740.797Z" fill="white"/>
</svg>
