<svg width="404" height="466" viewBox="0 0 404 466" fill="none" xmlns="http://www.w3.org/2000/svg">
<circle cx="201.784" cy="233" r="178.5" stroke="#F8ABFF" stroke-width="15"/>
<path fill-rule="evenodd" clip-rule="evenodd" d="M193.701 14L201.784 0L209.867 14L269.045 116.5L387.402 116.5L403.568 116.5L395.485 130.5L336.307 233L395.485 335.5L403.568 349.5H387.402H269.045L209.867 452L201.784 466L193.701 452L134.523 349.5H16.1658H1.45202e-05L8.08292 335.5L67.2613 233L8.0829 130.5L0 116.5H16.1658L134.523 116.5L193.701 14ZM126.44 130.5L24.2487 130.5L75.3442 219L126.44 130.5ZM83.4271 233L142.606 130.5H260.962L320.141 233L260.962 335.5H142.605L83.4271 233ZM75.3442 247L24.2487 335.5H126.44L75.3442 247ZM150.688 349.5L201.784 438L252.879 349.5H150.688ZM277.128 335.5H379.319L328.224 247L277.128 335.5ZM328.224 219L379.319 130.5L277.128 130.5L328.224 219ZM252.879 116.5L150.688 116.5L201.784 28L252.879 116.5Z" fill="#F8ABFF"/>
<path fill-rule="evenodd" clip-rule="evenodd" d="M201.784 173.166L157.509 198.728L201.865 224.337L246.14 198.775L201.784 173.166ZM150.832 261.417V211.039L194.784 236.414V286.793L150.832 261.417ZM252.736 261.417L208.784 286.793V236.508L252.736 211.133V261.417Z" fill="#FFB258"/>
</svg>
