<svg width="472" height="662" viewBox="0 0 472 662" fill="none" xmlns="http://www.w3.org/2000/svg">
<g clip-path="url(#clip0_1_250)">
<path d="M259.947 279.507L235.998 270.564L221.778 313.044L235.998 351.052L268.18 335.401L274.167 313.044L259.947 279.507Z" fill="#FFB258"/>
<path d="M361.732 148.363L124.488 143.128L104.277 158.031L115.504 163.994L132.719 180.391L128.979 208.71L115.511 252.679L120.757 353.289L140.222 421.854L176.897 463.591L215.069 485.951L196.356 457.63L164.17 412.167L164.169 395.026L170.896 279.513L185.861 240.015L202.323 204.99L232.258 175.182L265.188 175.184L285.398 200.525L314.59 252.695L325.819 289.958L325.827 386.841L319.844 444.971L285.423 519.493L319.848 494.903L369.238 427.088L366.231 252.699L346.767 190.841L346.766 175.191L361.732 148.363Z" fill="#F8ABFF"/>
</g>
<defs>
<clipPath id="clip0_1_250">
<rect width="269" height="377" fill="white" transform="translate(102 143)"/>
</clipPath>
</defs>
</svg>
