<svg width="392" height="550" viewBox="0 0 392 550" fill="none" xmlns="http://www.w3.org/2000/svg">
<path d="M230.168 199.149L195.268 186.102L174.546 248.074L195.268 303.524L242.165 280.691L250.89 248.074L230.168 199.149Z" fill="#FFB258"/>
<path d="M378.495 7.82387L32.7704 0.1861L3.31792 21.9287L19.6783 30.6278L44.7646 54.549L39.3147 95.8637L19.6884 160.009L27.3342 306.787L55.6984 406.816L109.144 467.705L164.769 500.327L137.5 459.01L90.5976 392.684L90.5957 367.678L100.398 199.156L122.206 141.534L146.196 90.4359L189.818 46.9497L237.806 46.9535L267.256 83.922L309.797 160.032L326.16 214.395L326.171 355.737L317.453 440.541L267.292 549.261L317.459 513.386L389.433 414.453L385.05 160.038L356.687 69.7948L356.685 46.9628L378.495 7.82387Z" fill="#F8ABFF"/>
</svg>
