<svg width="490" height="764" viewBox="0 0 490 764" fill="none" xmlns="http://www.w3.org/2000/svg">
<path d="M396.659 684.278H404.159V676.778V664.818V657.318H396.659H365.268L322.12 637.388L286.764 605.22V308.833V307.001L285.919 305.375L277.625 289.413V256.069V249.33L270.925 248.611L256.655 247.081L250.048 215.824L249.341 212.48L246.354 210.82L235.574 204.826L229.584 194.036L229.336 193.588L229.028 193.178L214.266 173.479L213.731 172.765L213.043 172.197L199.596 161.079V144.911V144.472L199.545 144.036L198.145 132.126C201.524 132.566 204.842 133.015 207.239 133.346L207.411 133.369L207.585 133.385L246.248 136.903L246.762 136.95L247.278 136.925L317.778 133.628L320.461 138.615L321.667 140.856L323.986 141.9L333.625 146.241V155.464V158.125L335.303 160.191L344.441 171.448L344.981 172.113L345.657 172.639L351.984 177.564L355.417 180.236V181.502L351.521 202.298L345.12 215.111L331.371 237.126L320.961 251.712L319.566 253.667V256.069V269.436V285.32L331.832 275.227L363.465 249.196L363.913 248.828L364.299 248.395L387.497 222.364L388.973 220.708L389.31 218.514L390.1 213.376L394.142 211.538L396.907 210.28L398.017 207.452L405.75 187.753L406.221 186.554L406.264 185.266L407.63 144.935L411.288 134.767L419.525 136.729L422.847 137.521L425.625 135.535L430.546 132.017L433.684 129.774V125.916V87.9255V80.4858L426.245 80.4258L339.077 79.7222L339.047 79.722H339.016H61.3447H53.8447V87.222V104.81V110.885L59.7873 112.147L82.9851 117.071L83.0227 117.079L82.3909 117.922L85.3304 122.335L95.1719 137.109L95.3523 137.38L95.5555 137.634L103.991 148.187L105.499 150.074L107.826 150.726L140.757 159.954L145.23 165.245V192.942L142.1 202.341L135.508 222.131L153.193 211.07L161.505 205.871L168.38 208.043L181.758 237.372L181.795 237.453L181.834 237.534L193.785 262.157L202.85 259.107C203.444 263.422 203.989 268.308 204.317 271.588L204.776 276.183L209.085 277.842L214.346 279.867L222.556 322.217V352.452V362.534L229.586 360.424V394.664V395.533L229.785 396.38L235.21 419.453V526.927V635.973V637.564L235.856 639.017L236.172 639.73H230.057H222.557V647.23V661.3V676.778V684.278H230.057H244.819H396.659Z" fill="black" stroke="#00FFE0" stroke-width="15"/>
</svg>
