<svg width="501" height="949" viewBox="0 0 501 949" fill="none" xmlns="http://www.w3.org/2000/svg">
<path d="M439.474 212.01V250.979L432.125 261.273L428.451 218.627L413.754 202.451L382.891 172.305L371.134 167.894L364.52 154.659C329.003 155.394 257.528 156.865 255.765 156.865C254.001 156.865 258.459 180.393 260.909 192.158L274.136 200.246L299.12 215.686L324.839 270.096H335.862V284.801L332.923 295.83L335.862 323.77L347.619 333.329L344.68 419.355L335.862 432.59L332.923 419.355L321.165 401.709L263.848 348.769L235.924 337.005L216.818 343.623L210.205 364.945L227.841 385.533L300.59 510.528L339.536 569.349L355.702 632.582L372.604 642.141V730.373L353.498 794.341L318.226 831.84L343.21 791.4L353.498 741.402L343.21 642.141L319.695 575.967L267.522 510.528L125.699 331.123L62.5029 306.124V292.154H130.843L208 301.712L260.909 331.123H299.12L305.734 320.094V279.654L244.742 198.775L218.288 195.099L197.713 175.982L195.508 145.836L139.661 129.66V117.16H402.732V156.865L439.474 212.01Z" fill="#FFC700"/>
</svg>
