<svg width="343" height="552" viewBox="0 0 343 552" fill="none" xmlns="http://www.w3.org/2000/svg">
<path d="M275.372 88.6906H65.4752L54.2972 99.4437V117.228L65.4752 123.845H151.587C161.109 123.845 164.421 123.845 176.427 128.808C188.433 133.771 195.057 123.845 203.751 123.845C212.445 123.845 221.553 130.048 227.349 138.734C233.145 147.419 238.113 143.697 245.15 148.659C252.188 153.622 245.15 173.888 245.15 181.746V200.357C245.15 205.651 240.459 213.867 238.113 217.313L227.349 233.029L203.751 241.715H188.847C179.049 241.715 155.975 242.707 142.065 246.677C124.677 251.64 127.161 245.437 121.365 246.677C115.569 247.918 103.563 237.992 98.5951 233.029C93.6271 228.066 92.7991 223.931 92.7991 217.313C92.7991 212.02 87.5551 203.803 84.9331 200.357L65.4752 186.709H54.2972V200.357V406.732V441.059L77.8951 464.633H271.646V441.059L261.296 430.72L245.15 435.269L227.349 426.997C211.617 423.275 216.931 450.306 195.057 426.997C188.847 420.38 212.031 455.534 173.115 430.72L163.593 423.275C159.453 419.553 146.633 420.512 142.065 423.275C112.671 441.059 131.301 412.522 114.741 395.152C106.875 390.603 94.8691 372.405 121.365 372.405C128.403 372.405 96.9391 356.276 110.601 345.523C105.964 345.523 88.6591 319.467 104.391 314.091V305.819H114.741L128.403 299.202L138.339 292.171L149.517 294.652L154.071 299.202L162.351 288.862L176.841 292.171L188.847 301.683L203.751 294.652L222.795 292.171L232.317 301.683L245.15 302.924L252.602 314.091L253.844 326.912V338.905L258.812 350.072L266.678 367.029L280.34 361.239L278.684 350.072L287.378 342.628L285.308 329.807V99.4437L275.372 88.6906Z" fill="#0075FF" stroke="black"/>
</svg>
