<svg width="349" height="555" viewBox="0 0 349 555" fill="none" xmlns="http://www.w3.org/2000/svg">
<path fill-rule="evenodd" clip-rule="evenodd" d="M49 126.414V153.508H71.5643L80.2139 166.302L71.5643 177.215L66.6754 194.149V208.825L63.2907 234.79L55.0171 247.584L49 267.904V281.827V300.266L57.2736 315.318L98.6415 384.558L125.719 403.373L137.753 408.642L143.77 406.008C142.516 407.889 139.558 412.028 137.753 413.534C135.948 415.039 129.981 420.182 127.223 422.565L105.787 451.917L98.6415 455.68H85.855V476H171.599L174.608 472.613V455.68L169.719 451.917L171.599 433.854L214.472 345.423L225.754 293.117C227.759 295.876 232.147 301.169 233.651 300.266C235.155 299.363 238.289 278.315 239.668 267.904L225.754 236.671L212.967 229.145L203.942 214.093L197.172 200.922V174.581L203.942 163.292L235.908 161.034L252.455 153.508L246.438 163.292L249.822 174.581L252.455 198.288L249.822 214.093V227.264L262.609 215.598L275.771 200.922L290.814 188.881L298.336 171.947L290.814 177.215L284.421 170.065V159.529L293.071 150.498C294.324 146.107 297.132 136.951 298.336 135.445C299.539 133.94 298.837 115 298.336 105.718L293.071 100.826L294.575 107.223L290.814 109.857L288.558 100.826L290.814 88.0313L294.575 79L279.156 88.0313L271.634 105.718V96.6863L265.241 103.083L262.609 98.5678L256.968 109.857L247.942 107.223L235.908 121.146L163.326 126.414H49ZM140.385 389.45L156.933 384.558L158.813 371.764L156.933 345.423L163.326 331.5V340.907L166.334 348.057L176.864 335.263L182.505 322.092L181.377 308.921L174.984 288.601L173.48 260.378L176.864 232.532L171.223 223.5L164.454 214.093C161.947 209.326 156.933 199.643 156.933 199.041C156.933 198.439 155.178 189.006 154.3 184.365L146.403 180.226L139.633 177.968L137.753 174.581L141.89 170.818L127.975 175.71L120.454 183.612L119.325 198.288L117.445 209.577L112.18 214.845L113.308 210.706L111.052 206.943L102.778 227.264L98.6415 244.197V310.05L105.787 328.489L114.813 354.454L130.608 371.764L140.385 389.45Z" fill="#18A036"/>
</svg>
