<svg width="490" height="764" viewBox="0 0 490 764" fill="none" xmlns="http://www.w3.org/2000/svg">
<path d="M396.659 676.778H244.819H230.057V661.3V647.23H239.898H248.334L245.522 642.305L242.71 635.973V526.927V418.583L237.086 394.664V350.341L230.056 352.452V321.497L220.918 274.36L211.78 270.843C211.077 263.807 209.389 249.455 208.264 248.33C207.139 247.204 202.641 244.578 200.532 243.405L198.423 248.33L200.532 258.883L188.582 234.259L173.819 201.897L160.463 197.676L149.216 204.711L152.73 194.158V162.499L144.998 153.354L109.849 143.504L101.414 132.951L91.5723 118.177L97.899 109.735H84.5426L61.3447 104.81V87.222H339.016L426.184 87.9255V125.916L421.264 129.434L406.501 125.916L400.175 143.504L398.769 185.012L391.036 204.711L383.303 208.229L381.897 217.375L358.7 243.405L327.066 269.436V256.069L337.611 241.295L351.67 218.782L358.7 204.711L362.917 182.198V166.721L356.591 171.645L350.264 166.721L341.125 155.464V141.394L327.066 135.062L322.145 125.916L246.928 129.434L208.264 125.916C201.469 124.978 187.316 123.102 185.067 123.102C182.817 123.102 187.878 129.668 190.69 132.951L192.096 144.911V164.61L208.264 177.977L223.027 197.676L230.056 210.339L242.71 217.375L250.442 253.958L270.125 256.069V291.245L279.264 308.833V608.536L317.927 643.712L363.62 664.818H396.659V676.778Z" fill="#10ACA3"/>
</svg>
