<svg width="380" height="533" viewBox="0 0 380 533" fill="none" xmlns="http://www.w3.org/2000/svg">
<g clip-path="url(#clip0_9_110)">
<path d="M213.846 214.152L189.453 205.036L174.969 248.339L189.453 287.083L222.232 271.129L228.33 248.339L213.846 214.152Z" fill="#C61273"/>
<path d="M317.519 80.4668L75.8751 75.13L55.2893 90.3224L66.7244 96.4008L84.2585 113.115L80.4492 141.983L66.7314 186.804L72.0755 289.363L91.9006 359.257L129.257 401.803L168.136 424.597L149.076 395.727L116.293 349.383L116.292 331.91L123.144 214.158L138.386 173.895L155.154 138.191L185.644 107.805L219.185 107.808L239.769 133.639L269.503 186.82L280.94 224.806L280.948 323.566L274.854 382.822L239.794 458.788L274.858 433.721L325.164 364.593L322.101 186.824L302.277 123.768L302.275 107.815L317.519 80.4668Z" fill="#0B0021"/>
</g>
<defs>
<clipPath id="clip0_9_110">
<rect width="380" height="533" fill="white"/>
</clipPath>
</defs>
</svg>
