<svg width="363" height="547" viewBox="0 0 363 547" fill="none" xmlns="http://www.w3.org/2000/svg">
<path d="M297.751 120.988V227.665C297.751 233.749 295.721 230.91 297.751 245.512C299.961 261.406 298.97 242.267 291.66 260.115C284.666 277.191 288.005 264.171 291.66 281.612C288.005 278.773 290.947 291.839 290.036 296.62C285.162 322.174 290.473 292.501 281.508 310.411C277.447 318.524 283.538 320.416 283.538 320.957C290.036 327.853 286.078 337.98 285.162 344.078C281.508 368.415 283.538 349.351 276.635 370.848C269.731 392.346 273.792 378.961 268.107 390.724C265.264 395.997 266.482 396.402 263.64 402.081C260.797 407.76 257.548 415.872 257.548 420.334C257.548 424.796 253.154 430.88 251.863 435.342C250.83 438.911 246.83 441.696 244.959 442.643L224.655 454C227.091 449.944 236.025 435.342 236.025 435.342C236.025 435.342 246.99 436.964 248.208 409.382C249.676 376.139 237.65 419.117 242.523 398.836C243.839 393.357 245.365 379.772 249.426 372.065C253.487 364.358 255.112 366.387 257.548 358.68C259.985 350.973 257.548 348.945 259.985 336.371C262.421 323.797 263.64 327.447 263.64 322.174C263.64 316.901 263.234 314.062 263.64 302.299C264.046 290.536 259.985 290.942 259.985 281.612C259.985 272.283 257.548 277.962 257.548 271.066C257.548 264.171 257.548 258.898 259.985 249.569C262.421 240.239 259.985 232.127 259.985 227.665C259.985 224.096 258.36 218.066 257.548 215.497L253.154 206.167L242.117 203.328L238.868 200.489H231.964L227.497 206.167L224.655 215.497L214.503 223.609C208.817 231.721 214.503 227.665 214.503 232.127C214.503 236.589 205.569 230.505 202.726 232.127C200.452 233.425 195.552 236.994 193.386 238.617L183.64 241.051C181.474 241.051 176.574 239.834 174.299 234.966L168.614 227.665L164.553 223.609C162.658 224.15 157.893 224.907 153.995 223.609C150.096 222.311 150.746 219.823 151.558 218.742C150.069 216.578 146.604 212.089 144.655 211.44C142.706 210.791 142.218 202.787 142.218 198.866L138.157 186.292H126.787L110.543 188.32V206.167C110.543 208.439 106.212 209.007 104.046 209.007L99.9848 220.77L93.8934 227.665V241.051V281.612H99.9848V296.62H93.8934L90.6447 286.074L82.9289 281.612L77.2437 266.199V109.225H72.3706V104.763H61V95.8393H72.3706H93.8934H179.579V105.98L172.675 109.225H158.868H151.558L153.995 113.687L151.558 117.743H147.091L142.218 126.261V157.088L149.122 168.851C149.663 172.501 150.909 180.046 151.558 181.019C152.208 181.993 156.702 188.455 158.868 191.565L170.645 203.328L177.142 215.497H183.64L189.325 220.77L199.477 218.742L205.569 209.007L208.817 198.866L214.503 188.32L220.188 174.935L227.497 168.851L231.964 160.333L227.497 153.437L231.964 146.136L234.401 128.694L231.964 112.47H227.497L224.655 104.763L212.066 102.329V93H297.751L301 102.329L297.751 120.988Z" fill="#D20000"/>
</svg>
