<svg width="348" height="540" viewBox="0 0 348 540" fill="none" xmlns="http://www.w3.org/2000/svg">
<path d="M74.5426 105.912V95.5691L85.84 90L134.661 91.989L286.369 95.5691L290 101.934L288.386 125.801L286.369 169.956L288.386 189.05L276.282 186.265L232.706 208.541H225.443L239.969 197.403L257.318 181.89L261.353 167.967V152.055L264.582 139.724L263.775 126.597L255.705 129.381L249.653 135.348L247.231 118.243L242.39 113.867H131.837V118.243V145.293L135.064 154.442L141.923 165.182L149.186 176.718L162.097 197.403L169.763 210.53L183.482 227.635L201.638 257.867L206.48 274.575L203.656 294.464L201.638 307.989L192.762 324.298L177.833 347.37L158.063 370.84C158.063 370.84 135.469 393.912 126.995 399.481C118.521 405.05 119.329 405.05 109.645 407.834C99.9609 410.619 102.383 409.028 89.8756 414.597C77.3677 420.166 77.3677 420.166 70.1051 426.53C62.8425 432.895 70.5086 446.42 70.5086 446.42V450H58V237.58L67.6835 230.022C67.6835 230.022 65.2634 238.773 65.2634 257.867C65.2634 276.961 69.7017 296.453 86.2443 321.912C102.787 347.37 97.5401 372.431 109.645 374.42C121.75 376.409 125.381 370.522 126.995 370.84C128.609 371.158 137.62 361.16 141.923 356.122L156.045 336.63V304.807V282.53L152.01 277.757L141.923 265.823L124.977 257.867L105.207 252.696V128.188V118.243L101.172 108.696L90.2783 103.923L74.5426 105.912Z" fill="#A20000"/>
</svg>
