<svg width="485" height="485" viewBox="0 0 485 485" fill="none" xmlns="http://www.w3.org/2000/svg">
<path fill-rule="evenodd" clip-rule="evenodd" d="M242.5 485C376.429 485 485 376.429 485 242.5C485 108.571 376.429 0 242.5 0C108.571 0 0 108.571 0 242.5C0 376.429 108.571 485 242.5 485ZM413.784 242C413.784 259.472 411.164 276.332 406.294 292.208L377.307 242L406.294 191.792C411.164 207.668 413.784 224.528 413.784 242ZM369.224 256L400.016 309.335C394.626 321.904 387.773 333.697 379.672 344.5H318.128L369.224 256ZM436.485 344.5L416.206 309.375C424.328 288.484 428.784 265.763 428.784 242C428.784 218.237 424.328 195.516 416.206 174.625L436.485 139.5L444.568 125.5L428.402 125.5H387.788C359.307 90.0957 318.126 65.3405 271.161 58.151L250.867 23L242.784 9L234.701 23L214.407 58.151C167.442 65.3405 126.261 90.0956 97.7798 125.5H57.1658H41L49.0829 139.5L69.3621 174.625C61.24 195.516 56.7839 218.237 56.7839 242C56.7839 265.763 61.24 288.484 69.3621 309.375L49.0829 344.5L41 358.5H57.1658H97.7798C126.261 393.904 167.442 418.66 214.407 425.849L234.701 461L242.784 475L250.867 461L271.161 425.849C318.126 418.66 359.307 393.904 387.788 358.5H428.402H444.568L436.485 344.5ZM420.319 139.5H398.017C402.108 145.682 405.839 152.123 409.18 158.793L420.319 139.5ZM281.063 75.3008C314.979 83.0569 345.052 100.898 367.96 125.5H310.045L281.063 75.3008ZM242.784 37L253.944 56.3293C250.252 56.1108 246.531 56 242.784 56C239.037 56 235.316 56.1108 231.624 56.3293L242.784 37ZM242.784 71C235.908 71 229.128 71.4058 222.464 72.1947L191.688 125.5L293.879 125.5L263.104 72.1947C256.44 71.4058 249.659 71 242.784 71ZM117.608 125.5C140.515 100.898 170.589 83.0569 204.505 75.3008L175.523 125.5H117.608ZM65.2487 139.5H87.5507C83.4603 145.682 79.7293 152.123 76.3876 158.793L65.2487 139.5ZM105.896 139.5C97.7944 150.303 90.9414 162.096 85.5515 174.665L116.344 228L167.44 139.5L105.896 139.5ZM108.261 242L79.2735 191.792C74.4043 207.668 71.7839 224.528 71.7839 242C71.7839 259.472 74.4043 276.332 79.2735 292.208L108.261 242ZM116.344 256L85.5515 309.335C90.9414 321.904 97.7944 333.697 105.896 344.5H167.44L116.344 256ZM65.2487 344.5L76.3876 325.207C79.7293 331.877 83.4603 338.318 87.5507 344.5H65.2487ZM204.505 408.699C170.589 400.943 140.515 383.102 117.608 358.5H175.523L204.505 408.699ZM242.784 447L231.624 427.671C235.316 427.889 239.037 428 242.784 428C246.531 428 250.252 427.889 253.944 427.671L242.784 447ZM242.784 413C249.659 413 256.44 412.594 263.104 411.805L293.879 358.5H191.688L222.464 411.805C229.128 412.594 235.908 413 242.784 413ZM367.96 358.5C345.052 383.102 314.979 400.943 281.063 408.699L310.045 358.5H367.96ZM400.016 174.665C394.626 162.096 387.773 150.303 379.672 139.5L318.128 139.5L369.224 228L400.016 174.665ZM420.319 344.5H398.017C402.108 338.318 405.839 331.877 409.18 325.207L420.319 344.5ZM124.427 242L183.606 139.5H301.962L361.141 242L301.962 344.5H183.605L124.427 242ZM198.509 207.728L242.784 182.166L287.14 207.775L242.865 233.337L198.509 207.728ZM191.832 220.039V270.417L235.784 295.793V245.415L191.832 220.039ZM249.784 295.793L293.736 270.417V220.133L249.784 245.508V295.793Z" fill="#E9910D"/>
</svg>
